<svg width="14" height="90" viewBox="0 0 14 90" fill="none" xmlns="http://www.w3.org/2000/svg">
<path d="M13.2029 80.8111C13.2836 80.699 13.2581 80.5428 13.1461 80.4621C13.034 80.3815 12.8778 80.4069 12.7971 80.519L13.2029 80.8111ZM7 89.0001L6.7971 89.1461C6.84408 89.2114 6.91959 89.2501 7 89.2501C7.08041 89.2501 7.15592 89.2114 7.2029 89.1461L7 89.0001ZM1.2029 80.519C1.12223 80.4069 0.966001 80.3815 0.853944 80.4621C0.741886 80.5428 0.716437 80.699 0.797102 80.8111L1.2029 80.519ZM12.7971 80.519L6.7971 88.854L7.2029 89.1461L13.2029 80.8111L12.7971 80.519ZM7.2029 88.854L1.2029 80.519L0.797102 80.8111L6.7971 89.1461L7.2029 88.854Z" fill="#298B7A" fill-opacity="0.82"/>
<path d="M6.9807 1L6.9807 88.7282" stroke="#298B7A" stroke-opacity="0.82" stroke-width="0.5" stroke-linecap="round"/>
</svg>
