<svg width="39" height="50" viewBox="0 0 39 50" fill="none" xmlns="http://www.w3.org/2000/svg">
<path d="M12.5868 33.3571V37.5714H19.5032C20.6275 37.5714 21.5389 38.4828 21.5389 39.6071C21.5389 40.7314 20.6275 41.6429 19.5032 41.6429H12.5868V46.3713C12.5868 48.3754 10.9622 50 8.95808 50C6.95398 50 5.32934 48.3754 5.32934 46.3713V41.6429H2.03572C0.911421 41.6429 0 40.7314 0 39.6071C0 38.4828 0.911421 37.5714 2.03572 37.5714H5.32934V0H18.0898C24.6527 0 29.7784 1.45238 33.4671 4.35714C37.1557 7.21428 39 11.3095 39 16.6429C39 22.0238 37.1557 26.1667 33.4671 29.0714C29.7784 31.9286 24.6527 33.3571 18.0898 33.3571H12.5868ZM31.7425 16.7143C31.7425 13.3333 30.5689 10.7381 28.2216 8.92857C25.8743 7.11905 22.497 6.21429 18.0898 6.21429H12.5868V27.4286H18.0898C22.4491 27.4286 25.8024 26.5 28.1497 24.6429C30.5449 22.7381 31.7425 20.0952 31.7425 16.7143Z" fill="#7DD4AF"/>
</svg>
