<svg width="600" height="169" viewBox="0 0 600 169" fill="none" xmlns="http://www.w3.org/2000/svg">
<path d="M449.673 163.18C448.183 163.18 446.938 162.66 445.938 161.62C444.948 160.57 444.453 159.28 444.453 157.75C444.453 156.25 444.953 154.97 445.953 153.91C446.953 152.85 448.203 152.32 449.703 152.32C450.563 152.32 451.293 152.465 451.893 152.755C452.503 153.045 453.118 153.475 453.738 154.045L453.228 154.57C452.168 153.54 450.988 153.025 449.688 153.025C448.428 153.025 447.373 153.48 446.523 154.39C445.683 155.29 445.263 156.41 445.263 157.75C445.263 159.08 445.688 160.2 446.538 161.11C447.398 162.02 448.453 162.475 449.703 162.475C450.433 162.475 451.078 162.34 451.638 162.07C452.198 161.8 452.758 161.39 453.318 160.84L453.843 161.35C453.233 161.95 452.603 162.405 451.953 162.715C451.303 163.025 450.543 163.18 449.673 163.18ZM455.827 163V155.35H456.562V160.255L461.302 155.35H462.277L458.932 158.74L462.382 163H461.452L458.422 159.265L456.562 161.14V163H455.827ZM470.357 161.995C469.607 162.785 468.672 163.18 467.552 163.18C466.432 163.18 465.497 162.79 464.747 162.01C464.007 161.22 463.637 160.275 463.637 159.175C463.637 158.085 464.012 157.145 464.762 156.355C465.522 155.565 466.462 155.17 467.582 155.17C468.702 155.17 469.632 155.565 470.372 156.355C471.122 157.135 471.497 158.075 471.497 159.175C471.497 160.265 471.117 161.205 470.357 161.995ZM467.582 162.49C468.432 162.49 469.162 162.165 469.772 161.515C470.392 160.865 470.702 160.085 470.702 159.175C470.702 158.255 470.392 157.475 469.772 156.835C469.162 156.185 468.422 155.86 467.552 155.86C466.692 155.86 465.957 156.185 465.347 156.835C464.737 157.475 464.432 158.255 464.432 159.175C464.432 160.095 464.737 160.88 465.347 161.53C465.957 162.17 466.702 162.49 467.582 162.49ZM473.757 165.4V155.35H474.492V157.06C475.322 155.8 476.372 155.17 477.642 155.17C478.622 155.17 479.487 155.54 480.237 156.28C480.987 157.01 481.362 157.975 481.362 159.175C481.362 160.365 480.987 161.33 480.237 162.07C479.487 162.81 478.622 163.18 477.642 163.18C476.342 163.18 475.292 162.57 474.492 161.35V165.4H473.757ZM477.567 162.475C478.427 162.475 479.142 162.18 479.712 161.59C480.282 160.99 480.567 160.185 480.567 159.175C480.567 158.195 480.272 157.4 479.682 156.79C479.102 156.18 478.397 155.875 477.567 155.875C476.737 155.875 476.007 156.19 475.377 156.82C474.757 157.44 474.447 158.23 474.447 159.19C474.447 160.14 474.757 160.925 475.377 161.545C476.007 162.165 476.737 162.475 477.567 162.475ZM489.854 161.995C489.104 162.785 488.169 163.18 487.049 163.18C485.929 163.18 484.994 162.79 484.244 162.01C483.504 161.22 483.134 160.275 483.134 159.175C483.134 158.085 483.509 157.145 484.259 156.355C485.019 155.565 485.959 155.17 487.079 155.17C488.199 155.17 489.129 155.565 489.869 156.355C490.619 157.135 490.994 158.075 490.994 159.175C490.994 160.265 490.614 161.205 489.854 161.995ZM487.079 162.49C487.929 162.49 488.659 162.165 489.269 161.515C489.889 160.865 490.199 160.085 490.199 159.175C490.199 158.255 489.889 157.475 489.269 156.835C488.659 156.185 487.919 155.86 487.049 155.86C486.189 155.86 485.454 156.185 484.844 156.835C484.234 157.475 483.929 158.255 483.929 159.175C483.929 160.095 484.234 160.88 484.844 161.53C485.454 162.17 486.199 162.49 487.079 162.49ZM496.629 163.18C495.529 163.18 494.604 162.79 493.854 162.01C493.104 161.23 492.729 160.285 492.729 159.175C492.729 158.075 493.104 157.135 493.854 156.355C494.614 155.565 495.539 155.17 496.629 155.17C497.819 155.17 498.834 155.645 499.674 156.595L499.164 157.12C498.344 156.28 497.494 155.86 496.614 155.86C495.764 155.86 495.034 156.185 494.424 156.835C493.824 157.485 493.524 158.265 493.524 159.175C493.524 160.095 493.829 160.88 494.439 161.53C495.049 162.17 495.794 162.49 496.674 162.49C497.584 162.49 498.429 162.055 499.209 161.185L499.749 161.665C498.859 162.675 497.819 163.18 496.629 163.18ZM503.743 163V156.01H500.878V155.35H507.343V156.01H504.478V163H503.743ZM509.191 163V155.35H509.926V158.29H512.206C513.056 158.29 513.756 158.48 514.306 158.86C514.856 159.23 515.131 159.79 515.131 160.54C515.131 161.28 514.876 161.875 514.366 162.325C513.856 162.775 513.181 163 512.341 163H509.191ZM509.926 162.34H512.221C512.871 162.34 513.386 162.185 513.766 161.875C514.146 161.565 514.336 161.13 514.336 160.57C514.336 160.06 514.141 159.665 513.751 159.385C513.361 159.095 512.831 158.95 512.161 158.95H509.926V162.34ZM523.953 163.18C523.113 163.18 522.408 162.97 521.838 162.55C521.278 162.12 520.998 161.52 520.998 160.75C520.998 159.97 521.303 159.36 521.913 158.92C522.523 158.48 523.333 158.26 524.343 158.26C525.203 158.26 526.048 158.37 526.878 158.59V158.26C526.878 157.5 526.658 156.92 526.218 156.52C525.778 156.12 525.158 155.92 524.358 155.92C523.558 155.92 522.758 156.125 521.958 156.535L521.688 155.89C522.638 155.45 523.543 155.23 524.403 155.23C525.453 155.23 526.258 155.51 526.818 156.07C527.338 156.59 527.598 157.31 527.598 158.23V163H526.878V161.725C526.188 162.695 525.213 163.18 523.953 163.18ZM523.998 162.49C524.798 162.49 525.478 162.27 526.038 161.83C526.608 161.38 526.893 160.815 526.893 160.135V159.265C525.993 159.035 525.128 158.92 524.298 158.92C523.498 158.92 522.878 159.085 522.438 159.415C522.008 159.735 521.793 160.175 521.793 160.735C521.793 161.285 521.993 161.715 522.393 162.025C522.793 162.335 523.328 162.49 523.998 162.49ZM530.241 163V155.35H530.976V160.255L535.716 155.35H536.691L533.346 158.74L536.796 163H535.866L532.836 159.265L530.976 161.14V163H530.241ZM540.496 163V156.01H537.631V155.35H544.096V156.01H541.231V163H540.496ZM545.944 163V155.35H546.679V162.025L551.869 155.35H552.604V163H551.869V156.325L546.679 163H545.944ZM555.393 163V155.35H558.888C559.638 155.35 560.238 155.525 560.688 155.875C561.138 156.215 561.363 156.675 561.363 157.255C561.363 158.065 560.933 158.65 560.073 159.01C560.583 159.14 560.998 159.365 561.318 159.685C561.638 160.005 561.798 160.415 561.798 160.915C561.798 161.545 561.548 162.05 561.048 162.43C560.548 162.81 559.883 163 559.053 163H555.393ZM556.128 162.34H558.963C559.603 162.34 560.108 162.205 560.478 161.935C560.848 161.655 561.033 161.28 561.033 160.81C561.033 160.36 560.838 160.01 560.448 159.76C560.068 159.51 559.513 159.385 558.783 159.385H556.128V162.34ZM556.128 158.77H558.783C559.333 158.77 559.773 158.645 560.103 158.395C560.443 158.135 560.613 157.77 560.613 157.3C560.613 156.91 560.458 156.6 560.148 156.37C559.838 156.13 559.398 156.01 558.828 156.01H556.128V158.77ZM566.419 163.18C565.579 163.18 564.874 162.97 564.304 162.55C563.744 162.12 563.464 161.52 563.464 160.75C563.464 159.97 563.769 159.36 564.379 158.92C564.989 158.48 565.799 158.26 566.809 158.26C567.669 158.26 568.514 158.37 569.344 158.59V158.26C569.344 157.5 569.124 156.92 568.684 156.52C568.244 156.12 567.624 155.92 566.824 155.92C566.024 155.92 565.224 156.125 564.424 156.535L564.154 155.89C565.104 155.45 566.009 155.23 566.869 155.23C567.919 155.23 568.724 155.51 569.284 156.07C569.804 156.59 570.064 157.31 570.064 158.23V163H569.344V161.725C568.654 162.695 567.679 163.18 566.419 163.18ZM566.464 162.49C567.264 162.49 567.944 162.27 568.504 161.83C569.074 161.38 569.359 160.815 569.359 160.135V159.265C568.459 159.035 567.594 158.92 566.764 158.92C565.964 158.92 565.344 159.085 564.904 159.415C564.474 159.735 564.259 160.175 564.259 160.735C564.259 161.285 564.459 161.715 564.859 162.025C565.259 162.335 565.794 162.49 566.464 162.49ZM579.547 165.16V163H572.707V155.35H573.442V162.34H578.332V155.35H579.067V162.34H580.297L580.147 165.16H579.547ZM582.141 163V155.35H582.876V162.025L588.066 155.35H588.801V163H588.066V156.325L582.876 163H582.141ZM591.589 163V155.35H592.324V162.025L597.514 155.35H598.249V163H597.514V156.325L592.324 163H591.589Z" fill="white"/>
<g filter="url(#filter0_i)">
<circle cx="522" cy="66" r="64" stroke="#CCF0EE" stroke-width="4"/>
</g>
<path d="M474.442 65.064V63.362H485.022V65.064H474.442ZM474.442 70.446V68.744H485.022V70.446H474.442ZM500.217 72.861C498.96 74.471 497.319 75.276 495.295 75.276C493.271 75.276 491.63 74.4787 490.373 72.884C489.131 71.274 488.51 69.296 488.51 66.95C488.51 64.6347 489.139 62.672 490.396 61.062C491.669 59.4367 493.317 58.624 495.341 58.624C497.365 58.624 498.998 59.429 500.24 61.039C501.482 62.6337 502.103 64.604 502.103 66.95C502.103 69.2653 501.474 71.2357 500.217 72.861ZM491.776 71.665C492.696 72.9683 493.884 73.62 495.341 73.62C496.798 73.62 497.971 72.976 498.86 71.688C499.765 70.3847 500.217 68.8053 500.217 66.95C500.217 65.1253 499.757 63.5613 498.837 62.258C497.932 60.9393 496.752 60.28 495.295 60.28C493.838 60.28 492.658 60.9317 491.753 62.235C490.848 63.523 490.396 65.0947 490.396 66.95C490.396 68.7747 490.856 70.3463 491.776 71.665ZM505.296 75V72.585H507.412V75H505.296ZM510.267 75V73.597L516.109 68.445C517.366 67.341 518.24 66.421 518.731 65.685C519.222 64.949 519.467 64.1823 519.467 63.385C519.467 62.465 519.153 61.7213 518.524 61.154C517.895 60.5867 517.129 60.303 516.224 60.303C515.35 60.303 514.576 60.5253 513.901 60.97C513.242 61.4147 512.575 62.1123 511.9 63.063L510.566 62.097C511.348 60.9317 512.176 60.073 513.05 59.521C513.924 58.9537 515.028 58.67 516.362 58.67C517.803 58.67 518.992 59.107 519.927 59.981C520.878 60.8397 521.353 61.936 521.353 63.27C521.353 64.374 521.054 65.3553 520.456 66.214C519.858 67.0727 518.8 68.1767 517.282 69.526L512.981 73.344H521.514V75H510.267ZM537.164 75.276C535.447 75.276 533.998 74.6703 532.817 73.459C531.652 72.2323 531.069 70.768 531.069 69.066C531.069 67.364 531.652 65.9073 532.817 64.696C533.998 63.4693 535.447 62.856 537.164 62.856C539.004 62.856 540.591 63.5613 541.925 64.972L540.798 66.168C539.694 65.0027 538.475 64.42 537.141 64.42C535.945 64.42 534.933 64.8723 534.105 65.777C533.292 66.6663 532.886 67.7627 532.886 69.066C532.886 70.354 533.3 71.4503 534.128 72.355C534.971 73.2443 536.014 73.689 537.256 73.689C538.529 73.689 539.725 73.091 540.844 71.895L542.017 72.976C540.637 74.5093 539.019 75.276 537.164 75.276ZM550.143 75.276C548.471 75.276 547.061 74.701 545.911 73.551C544.776 72.3857 544.209 70.8907 544.209 69.066C544.209 67.3333 544.753 65.869 545.842 64.673C546.93 63.4617 548.287 62.856 549.913 62.856C551.615 62.856 552.964 63.454 553.961 64.65C554.957 65.846 555.456 67.3487 555.456 69.158C555.456 69.388 555.448 69.595 555.433 69.779H546.003C546.125 70.9903 546.578 71.9563 547.36 72.677C548.157 73.3823 549.1 73.735 550.189 73.735C551.615 73.735 552.864 73.1753 553.938 72.056L555.042 73.045C553.708 74.5323 552.075 75.276 550.143 75.276ZM546.003 68.353H553.662C553.554 67.203 553.171 66.2523 552.512 65.501C551.868 64.7343 550.986 64.351 549.867 64.351C548.855 64.351 547.988 64.7267 547.268 65.478C546.547 66.2293 546.125 67.1877 546.003 68.353ZM558.556 75V63.109H560.327V69.963L566.836 63.109H569.021L564.053 68.261L569.159 75H567.066L562.834 69.549L560.327 72.125V75H558.556Z" fill="white"/>
<path d="M234.577 163V152.5H242.707V163H241.927V153.22H235.357V163H234.577ZM245.167 163.12C244.887 163.12 244.607 163.08 244.327 163L244.462 162.325C244.712 162.395 244.907 162.43 245.047 162.43C245.247 162.43 245.407 162.41 245.527 162.37C245.657 162.32 245.797 162.225 245.947 162.085C246.097 161.945 246.217 161.725 246.307 161.425C246.397 161.125 246.482 160.735 246.562 160.255C246.652 159.775 246.717 159.16 246.757 158.41C246.797 157.66 246.817 156.775 246.817 155.755V155.35H252.022V163H251.287V156.01H247.522V156.22C247.522 157.46 247.482 158.51 247.402 159.37C247.322 160.23 247.222 160.905 247.102 161.395C246.982 161.875 246.812 162.25 246.592 162.52C246.372 162.78 246.157 162.945 245.947 163.015C245.747 163.085 245.487 163.12 245.167 163.12ZM261.012 161.995C260.262 162.785 259.327 163.18 258.207 163.18C257.087 163.18 256.152 162.79 255.402 162.01C254.662 161.22 254.292 160.275 254.292 159.175C254.292 158.085 254.667 157.145 255.417 156.355C256.177 155.565 257.117 155.17 258.237 155.17C259.357 155.17 260.287 155.565 261.027 156.355C261.777 157.135 262.152 158.075 262.152 159.175C262.152 160.265 261.772 161.205 261.012 161.995ZM258.237 162.49C259.087 162.49 259.817 162.165 260.427 161.515C261.047 160.865 261.357 160.085 261.357 159.175C261.357 158.255 261.047 157.475 260.427 156.835C259.817 156.185 259.077 155.86 258.207 155.86C257.347 155.86 256.612 156.185 256.002 156.835C255.392 157.475 255.087 158.255 255.087 159.175C255.087 160.095 255.392 160.88 256.002 161.53C256.612 162.17 257.357 162.49 258.237 162.49ZM266.332 163V156.01H263.467V155.35H269.932V156.01H267.067V163H266.332ZM271.78 163V155.35H272.515V158.755H277.6V155.35H278.335V163H277.6V159.415H272.515V163H271.78ZM287.32 161.995C286.57 162.785 285.635 163.18 284.515 163.18C283.395 163.18 282.46 162.79 281.71 162.01C280.97 161.22 280.6 160.275 280.6 159.175C280.6 158.085 280.975 157.145 281.725 156.355C282.485 155.565 283.425 155.17 284.545 155.17C285.665 155.17 286.595 155.565 287.335 156.355C288.085 157.135 288.46 158.075 288.46 159.175C288.46 160.265 288.08 161.205 287.32 161.995ZM284.545 162.49C285.395 162.49 286.125 162.165 286.735 161.515C287.355 160.865 287.665 160.085 287.665 159.175C287.665 158.255 287.355 157.475 286.735 156.835C286.125 156.185 285.385 155.86 284.515 155.86C283.655 155.86 282.92 156.185 282.31 156.835C281.7 157.475 281.395 158.255 281.395 159.175C281.395 160.095 281.7 160.88 282.31 161.53C282.92 162.17 283.665 162.49 284.545 162.49ZM294.095 163.18C292.995 163.18 292.07 162.79 291.32 162.01C290.57 161.23 290.195 160.285 290.195 159.175C290.195 158.075 290.57 157.135 291.32 156.355C292.08 155.565 293.005 155.17 294.095 155.17C295.285 155.17 296.3 155.645 297.14 156.595L296.63 157.12C295.81 156.28 294.96 155.86 294.08 155.86C293.23 155.86 292.5 156.185 291.89 156.835C291.29 157.485 290.99 158.265 290.99 159.175C290.99 160.095 291.295 160.88 291.905 161.53C292.515 162.17 293.26 162.49 294.14 162.49C295.05 162.49 295.895 162.055 296.675 161.185L297.215 161.665C296.325 162.675 295.285 163.18 294.095 163.18ZM301.21 163V156.01H298.345V155.35H304.81V156.01H301.945V163H301.21ZM306.658 163V155.35H307.393V158.29H309.673C310.523 158.29 311.223 158.48 311.773 158.86C312.323 159.23 312.598 159.79 312.598 160.54C312.598 161.28 312.343 161.875 311.833 162.325C311.323 162.775 310.648 163 309.808 163H306.658ZM307.393 162.34H309.688C310.338 162.34 310.853 162.185 311.233 161.875C311.613 161.565 311.803 161.13 311.803 160.57C311.803 160.06 311.608 159.665 311.218 159.385C310.828 159.095 310.298 158.95 309.628 158.95H307.393V162.34ZM319.094 163V155.35H325.454V163H324.719V156.01H319.829V163H319.094ZM330.574 163.18C329.734 163.18 329.029 162.97 328.459 162.55C327.899 162.12 327.619 161.52 327.619 160.75C327.619 159.97 327.924 159.36 328.534 158.92C329.144 158.48 329.954 158.26 330.964 158.26C331.824 158.26 332.669 158.37 333.499 158.59V158.26C333.499 157.5 333.279 156.92 332.839 156.52C332.399 156.12 331.779 155.92 330.979 155.92C330.179 155.92 329.379 156.125 328.579 156.535L328.309 155.89C329.259 155.45 330.164 155.23 331.024 155.23C332.074 155.23 332.879 155.51 333.439 156.07C333.959 156.59 334.219 157.31 334.219 158.23V163H333.499V161.725C332.809 162.695 331.834 163.18 330.574 163.18ZM330.619 162.49C331.419 162.49 332.099 162.27 332.659 161.83C333.229 161.38 333.514 160.815 333.514 160.135V159.265C332.614 159.035 331.749 158.92 330.919 158.92C330.119 158.92 329.499 159.085 329.059 159.415C328.629 159.735 328.414 160.175 328.414 160.735C328.414 161.285 328.614 161.715 329.014 162.025C329.414 162.335 329.949 162.49 330.619 162.49ZM336.863 165.4V155.35H337.598V157.06C338.428 155.8 339.478 155.17 340.748 155.17C341.728 155.17 342.593 155.54 343.343 156.28C344.093 157.01 344.468 157.975 344.468 159.175C344.468 160.365 344.093 161.33 343.343 162.07C342.593 162.81 341.728 163.18 340.748 163.18C339.448 163.18 338.398 162.57 337.598 161.35V165.4H336.863ZM340.673 162.475C341.533 162.475 342.248 162.18 342.818 161.59C343.388 160.99 343.673 160.185 343.673 159.175C343.673 158.195 343.378 157.4 342.788 156.79C342.208 156.18 341.503 155.875 340.673 155.875C339.843 155.875 339.113 156.19 338.483 156.82C337.863 157.44 337.553 158.23 337.553 159.19C337.553 160.14 337.863 160.925 338.483 161.545C339.113 162.165 339.843 162.475 340.673 162.475ZM349.09 163.18C348.25 163.18 347.545 162.97 346.975 162.55C346.415 162.12 346.135 161.52 346.135 160.75C346.135 159.97 346.44 159.36 347.05 158.92C347.66 158.48 348.47 158.26 349.48 158.26C350.34 158.26 351.185 158.37 352.015 158.59V158.26C352.015 157.5 351.795 156.92 351.355 156.52C350.915 156.12 350.295 155.92 349.495 155.92C348.695 155.92 347.895 156.125 347.095 156.535L346.825 155.89C347.775 155.45 348.68 155.23 349.54 155.23C350.59 155.23 351.395 155.51 351.955 156.07C352.475 156.59 352.735 157.31 352.735 158.23V163H352.015V161.725C351.325 162.695 350.35 163.18 349.09 163.18ZM349.135 162.49C349.935 162.49 350.615 162.27 351.175 161.83C351.745 161.38 352.03 160.815 352.03 160.135V159.265C351.13 159.035 350.265 158.92 349.435 158.92C348.635 158.92 348.015 159.085 347.575 159.415C347.145 159.735 346.93 160.175 346.93 160.735C346.93 161.285 347.13 161.715 347.53 162.025C347.93 162.335 348.465 162.49 349.135 162.49Z" fill="white"/>
<g filter="url(#filter1_i)">
<circle cx="294" cy="66" r="64" stroke="#CCF0EE" stroke-width="4"/>
</g>
<path d="M250.634 75L257.902 60.556H249.047V58.9H259.972V60.257L252.658 75H250.634ZM262.68 68.974V67.203H271.834V68.974H262.68ZM276.487 75L283.755 60.556H274.9V58.9H285.825V60.257L278.511 75H276.487ZM288.808 75V72.585H290.924V75H288.808ZM299.644 75.276C297.512 75.276 295.596 74.425 293.894 72.723L295.09 71.412C296.608 72.884 298.133 73.62 299.667 73.62C300.817 73.62 301.752 73.2827 302.473 72.608C303.193 71.9333 303.554 71.067 303.554 70.009C303.554 69.0123 303.178 68.1997 302.427 67.571C301.691 66.9423 300.732 66.628 299.552 66.628C298.448 66.628 297.321 66.9347 296.171 67.548L294.952 66.743L295.412 58.9H304.681V60.579H296.999L296.654 65.731C297.742 65.2557 298.8 65.018 299.828 65.018C301.438 65.018 302.764 65.4703 303.807 66.375C304.865 67.2643 305.394 68.468 305.394 69.986C305.394 71.55 304.857 72.8227 303.784 73.804C302.71 74.7853 301.33 75.276 299.644 75.276ZM315.631 75V63.109H317.31L321.749 69.365L326.188 63.109H327.89V75H326.096V65.938L321.703 71.964L317.356 65.938V75H315.631ZM331.848 75V63.109H339.921V64.673H333.619V75H331.848Z" fill="white"/>
<path d="M9.05414 163V152.5H17.1841V163H16.4041V153.22H9.83414V163H9.05414ZM19.6441 163.12C19.3641 163.12 19.0841 163.08 18.8041 163L18.9391 162.325C19.1891 162.395 19.3841 162.43 19.5241 162.43C19.7241 162.43 19.8841 162.41 20.0041 162.37C20.1341 162.32 20.2741 162.225 20.4241 162.085C20.5741 161.945 20.6941 161.725 20.7841 161.425C20.8741 161.125 20.9591 160.735 21.0391 160.255C21.1291 159.775 21.1941 159.16 21.2341 158.41C21.2741 157.66 21.2941 156.775 21.2941 155.755V155.35H26.4991V163H25.7641V156.01H21.9991V156.22C21.9991 157.46 21.9591 158.51 21.8791 159.37C21.7991 160.23 21.6991 160.905 21.5791 161.395C21.4591 161.875 21.2891 162.25 21.0691 162.52C20.8491 162.78 20.6341 162.945 20.4241 163.015C20.2241 163.085 19.9641 163.12 19.6441 163.12ZM35.4894 161.995C34.7394 162.785 33.8044 163.18 32.6844 163.18C31.5644 163.18 30.6294 162.79 29.8794 162.01C29.1394 161.22 28.7694 160.275 28.7694 159.175C28.7694 158.085 29.1444 157.145 29.8944 156.355C30.6544 155.565 31.5944 155.17 32.7144 155.17C33.8344 155.17 34.7644 155.565 35.5044 156.355C36.2544 157.135 36.6294 158.075 36.6294 159.175C36.6294 160.265 36.2494 161.205 35.4894 161.995ZM32.7144 162.49C33.5644 162.49 34.2944 162.165 34.9044 161.515C35.5244 160.865 35.8344 160.085 35.8344 159.175C35.8344 158.255 35.5244 157.475 34.9044 156.835C34.2944 156.185 33.5544 155.86 32.6844 155.86C31.8244 155.86 31.0894 156.185 30.4794 156.835C29.8694 157.475 29.5644 158.255 29.5644 159.175C29.5644 160.095 29.8694 160.88 30.4794 161.53C31.0894 162.17 31.8344 162.49 32.7144 162.49ZM40.8091 163V156.01H37.9441V155.35H44.4091V156.01H41.5441V163H40.8091ZM46.2573 163V155.35H46.9923V158.755H52.0773V155.35H52.8123V163H52.0773V159.415H46.9923V163H46.2573ZM61.798 161.995C61.048 162.785 60.113 163.18 58.993 163.18C57.873 163.18 56.938 162.79 56.188 162.01C55.448 161.22 55.078 160.275 55.078 159.175C55.078 158.085 55.453 157.145 56.203 156.355C56.963 155.565 57.903 155.17 59.023 155.17C60.143 155.17 61.073 155.565 61.813 156.355C62.563 157.135 62.938 158.075 62.938 159.175C62.938 160.265 62.558 161.205 61.798 161.995ZM59.023 162.49C59.873 162.49 60.603 162.165 61.213 161.515C61.833 160.865 62.143 160.085 62.143 159.175C62.143 158.255 61.833 157.475 61.213 156.835C60.603 156.185 59.863 155.86 58.993 155.86C58.133 155.86 57.398 156.185 56.788 156.835C56.178 157.475 55.873 158.255 55.873 159.175C55.873 160.095 56.178 160.88 56.788 161.53C57.398 162.17 58.143 162.49 59.023 162.49ZM68.5727 163.18C67.4727 163.18 66.5477 162.79 65.7977 162.01C65.0477 161.23 64.6727 160.285 64.6727 159.175C64.6727 158.075 65.0477 157.135 65.7977 156.355C66.5577 155.565 67.4827 155.17 68.5727 155.17C69.7627 155.17 70.7777 155.645 71.6177 156.595L71.1077 157.12C70.2877 156.28 69.4377 155.86 68.5577 155.86C67.7077 155.86 66.9777 156.185 66.3677 156.835C65.7677 157.485 65.4677 158.265 65.4677 159.175C65.4677 160.095 65.7727 160.88 66.3827 161.53C66.9927 162.17 67.7377 162.49 68.6177 162.49C69.5277 162.49 70.3727 162.055 71.1527 161.185L71.6927 161.665C70.8027 162.675 69.7627 163.18 68.5727 163.18ZM75.6871 163V156.01H72.8221V155.35H79.2871V156.01H76.4221V163H75.6871ZM81.1352 163V155.35H81.8702V158.29H84.1502C85.0002 158.29 85.7002 158.48 86.2502 158.86C86.8002 159.23 87.0752 159.79 87.0752 160.54C87.0752 161.28 86.8202 161.875 86.3102 162.325C85.8002 162.775 85.1252 163 84.2852 163H81.1352ZM81.8702 162.34H84.1652C84.8152 162.34 85.3302 162.185 85.7102 161.875C86.0902 161.565 86.2802 161.13 86.2802 160.57C86.2802 160.06 86.0852 159.665 85.6952 159.385C85.3052 159.095 84.7752 158.95 84.1052 158.95H81.8702V162.34ZM95.4918 163V156.01H92.6268V155.35H99.0918V156.01H96.2268V163H95.4918ZM100.325 163L102.74 159.955C102.1 159.835 101.57 159.57 101.15 159.16C100.74 158.75 100.535 158.24 100.535 157.63C100.535 156.95 100.785 156.4 101.285 155.98C101.785 155.56 102.47 155.35 103.34 155.35H106.76V163H106.025V160.06H103.505L101.225 163H100.325ZM103.475 159.4H106.025V156.01H103.445C102.785 156.01 102.265 156.16 101.885 156.46C101.515 156.76 101.33 157.165 101.33 157.675C101.33 158.195 101.53 158.615 101.93 158.935C102.33 159.245 102.845 159.4 103.475 159.4ZM109.553 163V155.35H114.608V156.01H110.288V163H109.553ZM116.453 163V155.35H117.188V162.025L122.378 155.35H123.113V163H122.378V156.325L117.188 163H116.453Z" fill="white"/>
<g filter="url(#filter2_i)">
<circle cx="66" cy="66" r="64" stroke="#CCF0EE" stroke-width="4"/>
</g>
<path d="M16.7878 74.678V73.068H28.1958V74.678H16.7878ZM21.5948 71.918V68.054H16.7418V66.398H21.5948V62.534H23.3658V66.398H28.2418V68.054H23.3658V71.918H21.5948ZM42.9768 72.861C41.7194 74.471 40.0788 75.276 38.0548 75.276C36.0308 75.276 34.3901 74.4787 33.1328 72.884C31.8908 71.274 31.2698 69.296 31.2698 66.95C31.2698 64.6347 31.8984 62.672 33.1558 61.062C34.4284 59.4367 36.0768 58.624 38.1008 58.624C40.1248 58.624 41.7578 59.429 42.9998 61.039C44.2418 62.6337 44.8628 64.604 44.8628 66.95C44.8628 69.2653 44.2341 71.2357 42.9768 72.861ZM34.5358 71.665C35.4558 72.9683 36.6441 73.62 38.1008 73.62C39.5574 73.62 40.7304 72.976 41.6198 71.688C42.5244 70.3847 42.9768 68.8053 42.9768 66.95C42.9768 65.1253 42.5168 63.5613 41.5968 62.258C40.6921 60.9393 39.5114 60.28 38.0548 60.28C36.5981 60.28 35.4174 60.9317 34.5128 62.235C33.6081 63.523 33.1558 65.0947 33.1558 66.95C33.1558 68.7747 33.6158 70.3463 34.5358 71.665ZM48.0562 75V72.585H50.1722V75H48.0562ZM61.8589 75V71.182H53.3719L52.9119 69.871L62.0199 58.785H63.6069V69.664H66.1139V71.182H63.6069V75H61.8589ZM55.0969 69.664H61.8589V61.361L55.0969 69.664ZM76.227 75V63.109H77.998V69.963L84.507 63.109H86.692L81.724 68.261L86.83 75H84.737L80.505 69.549L77.998 72.125V75H76.227ZM89.5758 75V58.9H102.272V75H100.455V60.556H91.3928V75H89.5758ZM110.069 75.253C108.857 75.253 107.815 74.9233 106.941 74.264C106.067 73.6047 105.63 72.6847 105.63 71.504C105.63 70.262 106.09 69.3037 107.01 68.629C107.93 67.9543 109.164 67.617 110.713 67.617C111.939 67.617 113.151 67.7857 114.347 68.123V67.755C114.347 66.7123 114.04 65.915 113.427 65.363C112.813 64.811 111.947 64.535 110.828 64.535C109.662 64.535 108.459 64.8187 107.217 65.386L106.688 63.937C108.16 63.2623 109.601 62.925 111.012 62.925C112.698 62.925 113.979 63.362 114.853 64.236C115.681 65.064 116.095 66.2293 116.095 67.732V75H114.347V73.229C113.289 74.5783 111.863 75.253 110.069 75.253ZM110.414 73.827C111.518 73.827 112.453 73.528 113.22 72.93C113.986 72.332 114.37 71.5653 114.37 70.63V69.526C113.204 69.1887 112.047 69.02 110.897 69.02C109.808 69.02 108.957 69.2423 108.344 69.687C107.73 70.1163 107.424 70.7067 107.424 71.458C107.424 72.1787 107.707 72.7537 108.275 73.183C108.857 73.6123 109.57 73.827 110.414 73.827Z" fill="white"/>
<defs>
<filter id="filter0_i" x="456" y="0" width="136" height="136" filterUnits="userSpaceOnUse" color-interpolation-filters="sRGB">
<feFlood flood-opacity="0" result="BackgroundImageFix"/>
<feBlend mode="normal" in="SourceGraphic" in2="BackgroundImageFix" result="shape"/>
<feColorMatrix in="SourceAlpha" type="matrix" values="0 0 0 0 0 0 0 0 0 0 0 0 0 0 0 0 0 0 127 0" result="hardAlpha"/>
<feOffset dx="4" dy="4"/>
<feGaussianBlur stdDeviation="4"/>
<feComposite in2="hardAlpha" operator="arithmetic" k2="-1" k3="1"/>
<feColorMatrix type="matrix" values="0 0 0 0 0.8 0 0 0 0 0.941176 0 0 0 0 0.933333 0 0 0 1 0"/>
<feBlend mode="multiply" in2="shape" result="effect1_innerShadow"/>
</filter>
<filter id="filter1_i" x="228" y="0" width="136" height="136" filterUnits="userSpaceOnUse" color-interpolation-filters="sRGB">
<feFlood flood-opacity="0" result="BackgroundImageFix"/>
<feBlend mode="normal" in="SourceGraphic" in2="BackgroundImageFix" result="shape"/>
<feColorMatrix in="SourceAlpha" type="matrix" values="0 0 0 0 0 0 0 0 0 0 0 0 0 0 0 0 0 0 127 0" result="hardAlpha"/>
<feOffset dx="4" dy="4"/>
<feGaussianBlur stdDeviation="4"/>
<feComposite in2="hardAlpha" operator="arithmetic" k2="-1" k3="1"/>
<feColorMatrix type="matrix" values="0 0 0 0 0.8 0 0 0 0 0.941176 0 0 0 0 0.933333 0 0 0 1 0"/>
<feBlend mode="multiply" in2="shape" result="effect1_innerShadow"/>
</filter>
<filter id="filter2_i" x="0" y="0" width="136" height="136" filterUnits="userSpaceOnUse" color-interpolation-filters="sRGB">
<feFlood flood-opacity="0" result="BackgroundImageFix"/>
<feBlend mode="normal" in="SourceGraphic" in2="BackgroundImageFix" result="shape"/>
<feColorMatrix in="SourceAlpha" type="matrix" values="0 0 0 0 0 0 0 0 0 0 0 0 0 0 0 0 0 0 127 0" result="hardAlpha"/>
<feOffset dx="4" dy="4"/>
<feGaussianBlur stdDeviation="4"/>
<feComposite in2="hardAlpha" operator="arithmetic" k2="-1" k3="1"/>
<feColorMatrix type="matrix" values="0 0 0 0 0.8 0 0 0 0 0.941176 0 0 0 0 0.933333 0 0 0 1 0"/>
<feBlend mode="multiply" in2="shape" result="effect1_innerShadow"/>
</filter>
</defs>
</svg>
