<svg width="227" height="498" viewBox="0 0 227 498" fill="none" xmlns="http://www.w3.org/2000/svg">
<g filter="url(#filter0_i)">
<circle cx="113" cy="59" r="56.5" stroke="#CCF0EE" stroke-width="5"/>
</g>
<path d="M71.7397 135V127.3H77.7017V135H77.1297V127.828H72.3117V135H71.7397ZM79.5057 135.088C79.3004 135.088 79.095 135.059 78.8897 135L78.9887 134.505C79.172 134.556 79.315 134.582 79.4177 134.582C79.5644 134.582 79.6817 134.567 79.7697 134.538C79.865 134.501 79.9677 134.432 80.0777 134.329C80.1877 134.226 80.2757 134.065 80.3417 133.845C80.4077 133.625 80.47 133.339 80.5287 132.987C80.5947 132.635 80.6424 132.184 80.6717 131.634C80.701 131.084 80.7157 130.435 80.7157 129.687V129.39H84.5327V135H83.9937V129.874H81.2327V130.028C81.2327 130.937 81.2034 131.707 81.1447 132.338C81.086 132.969 81.0127 133.464 80.9247 133.823C80.8367 134.175 80.712 134.45 80.5507 134.648C80.3894 134.839 80.2317 134.96 80.0777 135.011C79.931 135.062 79.7404 135.088 79.5057 135.088ZM91.1256 134.263C90.5756 134.842 89.8899 135.132 89.0686 135.132C88.2472 135.132 87.5616 134.846 87.0116 134.274C86.4689 133.695 86.1976 133.002 86.1976 132.195C86.1976 131.396 86.4726 130.706 87.0226 130.127C87.5799 129.548 88.2692 129.258 89.0906 129.258C89.9119 129.258 90.5939 129.548 91.1366 130.127C91.6866 130.699 91.9616 131.388 91.9616 132.195C91.9616 132.994 91.6829 133.684 91.1256 134.263ZM89.0906 134.626C89.7139 134.626 90.2492 134.388 90.6966 133.911C91.1512 133.434 91.3786 132.862 91.3786 132.195C91.3786 131.52 91.1512 130.948 90.6966 130.479C90.2492 130.002 89.7066 129.764 89.0686 129.764C88.4379 129.764 87.8989 130.002 87.4516 130.479C87.0042 130.948 86.7806 131.52 86.7806 132.195C86.7806 132.87 87.0042 133.445 87.4516 133.922C87.8989 134.391 88.4452 134.626 89.0906 134.626ZM95.0267 135V129.874H92.9257V129.39H97.6667V129.874H95.5657V135H95.0267ZM99.022 135V129.39H99.561V131.887H103.29V129.39H103.829V135H103.29V132.371H99.561V135H99.022ZM110.419 134.263C109.869 134.842 109.183 135.132 108.362 135.132C107.54 135.132 106.855 134.846 106.305 134.274C105.762 133.695 105.491 133.002 105.491 132.195C105.491 131.396 105.766 130.706 106.316 130.127C106.873 129.548 107.562 129.258 108.384 129.258C109.205 129.258 109.887 129.548 110.43 130.127C110.98 130.699 111.255 131.388 111.255 132.195C111.255 132.994 110.976 133.684 110.419 134.263ZM108.384 134.626C109.007 134.626 109.542 134.388 109.99 133.911C110.444 133.434 110.672 132.862 110.672 132.195C110.672 131.52 110.444 130.948 109.99 130.479C109.542 130.002 109 129.764 108.362 129.764C107.731 129.764 107.192 130.002 106.745 130.479C106.297 130.948 106.074 131.52 106.074 132.195C106.074 132.87 106.297 133.445 106.745 133.922C107.192 134.391 107.738 134.626 108.384 134.626ZM115.387 135.132C114.58 135.132 113.902 134.846 113.352 134.274C112.802 133.702 112.527 133.009 112.527 132.195C112.527 131.388 112.802 130.699 113.352 130.127C113.909 129.548 114.587 129.258 115.387 129.258C116.259 129.258 117.004 129.606 117.62 130.303L117.246 130.688C116.644 130.072 116.021 129.764 115.376 129.764C114.752 129.764 114.217 130.002 113.77 130.479C113.33 130.956 113.11 131.528 113.11 132.195C113.11 132.87 113.333 133.445 113.781 133.922C114.228 134.391 114.774 134.626 115.42 134.626C116.087 134.626 116.707 134.307 117.279 133.669L117.675 134.021C117.022 134.762 116.259 135.132 115.387 135.132ZM120.604 135V129.874H118.503V129.39H123.244V129.874H121.143V135H120.604ZM124.599 135V129.39H125.138V131.546H126.81C127.434 131.546 127.947 131.685 128.35 131.964C128.754 132.235 128.955 132.646 128.955 133.196C128.955 133.739 128.768 134.175 128.394 134.505C128.02 134.835 127.525 135 126.909 135H124.599ZM125.138 134.516H126.821C127.298 134.516 127.676 134.402 127.954 134.175C128.233 133.948 128.372 133.629 128.372 133.218C128.372 132.844 128.229 132.554 127.943 132.349C127.657 132.136 127.269 132.03 126.777 132.03H125.138V134.516ZM135.127 135V129.874H133.026V129.39H137.767V129.874H135.666V135H135.127ZM138.672 135L140.443 132.767C139.973 132.679 139.585 132.485 139.277 132.184C138.976 131.883 138.826 131.509 138.826 131.062C138.826 130.563 139.009 130.16 139.376 129.852C139.742 129.544 140.245 129.39 140.883 129.39H143.391V135H142.852V132.844H141.004L139.332 135H138.672ZM140.982 132.36H142.852V129.874H140.96C140.476 129.874 140.094 129.984 139.816 130.204C139.544 130.424 139.409 130.721 139.409 131.095C139.409 131.476 139.555 131.784 139.849 132.019C140.142 132.246 140.52 132.36 140.982 132.36ZM145.439 135V129.39H149.146V129.874H145.978V135H145.439ZM150.499 135V129.39H151.038V134.285L154.844 129.39H155.383V135H154.844V130.105L151.038 135H150.499Z" fill="white"/>
<path d="M80.8686 58.532H75.9846V62.448H74.8186V58.532H69.9346V57.476H74.8186V53.582H75.9846V57.476H80.8686V58.532ZM80.8686 64.516H69.9346V63.46H80.8686V64.516ZM90.2109 65.264C88.3042 65.264 86.7642 64.494 85.5909 62.954C84.4322 61.3993 83.8529 59.5147 83.8529 57.3C83.8529 55.8773 84.1095 54.5647 84.6229 53.362C85.1362 52.1593 85.8842 51.1913 86.8669 50.458C87.8642 49.71 88.9935 49.336 90.2549 49.336C92.1615 49.336 93.6942 50.1133 94.8529 51.668C96.0262 53.208 96.6129 55.0853 96.6129 57.3C96.6129 58.7227 96.3562 60.0353 95.8429 61.238C95.3295 62.4407 94.5742 63.416 93.5769 64.164C92.5942 64.8973 91.4722 65.264 90.2109 65.264ZM86.4929 62.162C87.4609 63.5407 88.7149 64.23 90.2549 64.23C91.7949 64.23 93.0415 63.548 93.9949 62.184C94.9482 60.8053 95.4249 59.1773 95.4249 57.3C95.4249 55.4227 94.9409 53.802 93.9729 52.438C93.0049 51.0593 91.7509 50.37 90.2109 50.37C88.6709 50.37 87.4242 51.052 86.4709 52.416C85.5175 53.78 85.0409 55.408 85.0409 57.3C85.0409 59.1627 85.5249 60.7833 86.4929 62.162ZM99.4163 65V63.13H100.868V65H99.4163ZM112.473 65V61.238H104.135L103.739 60.38L112.539 49.49H113.573V60.248H116.081V61.238H113.573V65H112.473ZM105.125 60.248H112.473V51.14L105.125 60.248ZM119.338 65V53.78H120.416V60.974L127.368 53.78H128.798L123.892 58.752L128.952 65H127.588L123.144 59.522L120.416 62.272V65H119.338ZM131.805 65V49.6H143.729V65H142.585V50.656H132.949V65H131.805ZM151.473 65.264C150.241 65.264 149.207 64.956 148.371 64.34C147.549 63.7093 147.139 62.8293 147.139 61.7C147.139 60.556 147.586 59.6613 148.481 59.016C149.375 58.3707 150.563 58.048 152.045 58.048C153.306 58.048 154.545 58.2093 155.763 58.532V58.048C155.763 56.9333 155.44 56.0827 154.795 55.496C154.149 54.9093 153.24 54.616 152.067 54.616C150.893 54.616 149.72 54.9167 148.547 55.518L148.151 54.572C149.544 53.9267 150.871 53.604 152.133 53.604C153.673 53.604 154.853 54.0147 155.675 54.836C156.437 55.5987 156.819 56.6547 156.819 58.004V65H155.763V63.13C154.751 64.5527 153.321 65.264 151.473 65.264ZM151.539 64.252C152.712 64.252 153.709 63.9293 154.531 63.284C155.367 62.624 155.785 61.7953 155.785 60.798V59.522C154.465 59.1847 153.196 59.016 151.979 59.016C150.805 59.016 149.896 59.258 149.251 59.742C148.62 60.2113 148.305 60.8567 148.305 61.678C148.305 62.4847 148.598 63.1153 149.185 63.57C149.771 64.0247 150.556 64.252 151.539 64.252Z" fill="white"/>
<path d="M70.2895 317V309.3H76.2515V317H75.6795V309.828H70.8615V317H70.2895ZM78.0555 317.088C77.8502 317.088 77.6448 317.059 77.4395 317L77.5385 316.505C77.7218 316.556 77.8648 316.582 77.9675 316.582C78.1142 316.582 78.2315 316.567 78.3195 316.538C78.4148 316.501 78.5175 316.432 78.6275 316.329C78.7375 316.226 78.8255 316.065 78.8915 315.845C78.9575 315.625 79.0198 315.339 79.0785 314.987C79.1445 314.635 79.1922 314.184 79.2215 313.634C79.2508 313.084 79.2655 312.435 79.2655 311.687V311.39H83.0825V317H82.5435V311.874H79.7825V312.028C79.7825 312.937 79.7532 313.707 79.6945 314.338C79.6358 314.969 79.5625 315.464 79.4745 315.823C79.3865 316.175 79.2618 316.45 79.1005 316.648C78.9392 316.839 78.7815 316.96 78.6275 317.011C78.4808 317.062 78.2902 317.088 78.0555 317.088ZM89.6754 316.263C89.1254 316.842 88.4397 317.132 87.6184 317.132C86.797 317.132 86.1114 316.846 85.5614 316.274C85.0187 315.695 84.7474 315.002 84.7474 314.195C84.7474 313.396 85.0224 312.706 85.5724 312.127C86.1297 311.548 86.819 311.258 87.6404 311.258C88.4617 311.258 89.1437 311.548 89.6864 312.127C90.2364 312.699 90.5114 313.388 90.5114 314.195C90.5114 314.994 90.2327 315.684 89.6754 316.263ZM87.6404 316.626C88.2637 316.626 88.799 316.388 89.2464 315.911C89.701 315.434 89.9284 314.862 89.9284 314.195C89.9284 313.52 89.701 312.948 89.2464 312.479C88.799 312.002 88.2564 311.764 87.6184 311.764C86.9877 311.764 86.4487 312.002 86.0014 312.479C85.554 312.948 85.3304 313.52 85.3304 314.195C85.3304 314.87 85.554 315.445 86.0014 315.922C86.4487 316.391 86.995 316.626 87.6404 316.626ZM93.5765 317V311.874H91.4755V311.39H96.2165V311.874H94.1155V317H93.5765ZM97.5718 317V311.39H98.1108V313.887H101.84V311.39H102.379V317H101.84V314.371H98.1108V317H97.5718ZM108.968 316.263C108.418 316.842 107.733 317.132 106.911 317.132C106.09 317.132 105.404 316.846 104.854 316.274C104.312 315.695 104.04 315.002 104.04 314.195C104.04 313.396 104.315 312.706 104.865 312.127C105.423 311.548 106.112 311.258 106.933 311.258C107.755 311.258 108.437 311.548 108.979 312.127C109.529 312.699 109.804 313.388 109.804 314.195C109.804 314.994 109.526 315.684 108.968 316.263ZM106.933 316.626C107.557 316.626 108.092 316.388 108.539 315.911C108.994 315.434 109.221 314.862 109.221 314.195C109.221 313.52 108.994 312.948 108.539 312.479C108.092 312.002 107.549 311.764 106.911 311.764C106.281 311.764 105.742 312.002 105.294 312.479C104.847 312.948 104.623 313.52 104.623 314.195C104.623 314.87 104.847 315.445 105.294 315.922C105.742 316.391 106.288 316.626 106.933 316.626ZM113.936 317.132C113.13 317.132 112.451 316.846 111.901 316.274C111.351 315.702 111.076 315.009 111.076 314.195C111.076 313.388 111.351 312.699 111.901 312.127C112.459 311.548 113.137 311.258 113.936 311.258C114.809 311.258 115.553 311.606 116.169 312.303L115.795 312.688C115.194 312.072 114.571 311.764 113.925 311.764C113.302 311.764 112.767 312.002 112.319 312.479C111.879 312.956 111.659 313.528 111.659 314.195C111.659 314.87 111.883 315.445 112.33 315.922C112.778 316.391 113.324 316.626 113.969 316.626C114.637 316.626 115.256 316.307 115.828 315.669L116.224 316.021C115.572 316.762 114.809 317.132 113.936 317.132ZM119.154 317V311.874H117.053V311.39H121.794V311.874H119.693V317H119.154ZM123.149 317V311.39H123.688V313.546H125.36C125.983 313.546 126.497 313.685 126.9 313.964C127.303 314.235 127.505 314.646 127.505 315.196C127.505 315.739 127.318 316.175 126.944 316.505C126.57 316.835 126.075 317 125.459 317H123.149ZM123.688 316.516H125.371C125.848 316.516 126.225 316.402 126.504 316.175C126.783 315.948 126.922 315.629 126.922 315.218C126.922 314.844 126.779 314.554 126.493 314.349C126.207 314.136 125.818 314.03 125.327 314.03H123.688V316.516ZM132.269 317V311.39H136.933V317H136.394V311.874H132.808V317H132.269ZM140.688 317.132C140.072 317.132 139.555 316.978 139.137 316.67C138.726 316.355 138.521 315.915 138.521 315.35C138.521 314.778 138.745 314.331 139.192 314.008C139.639 313.685 140.233 313.524 140.974 313.524C141.605 313.524 142.224 313.605 142.833 313.766V313.524C142.833 312.967 142.672 312.541 142.349 312.248C142.026 311.955 141.572 311.808 140.985 311.808C140.398 311.808 139.812 311.958 139.225 312.259L139.027 311.786C139.724 311.463 140.387 311.302 141.018 311.302C141.788 311.302 142.378 311.507 142.789 311.918C143.17 312.299 143.361 312.827 143.361 313.502V317H142.833V316.065C142.327 316.776 141.612 317.132 140.688 317.132ZM140.721 316.626C141.308 316.626 141.806 316.465 142.217 316.142C142.635 315.812 142.844 315.398 142.844 314.899V314.261C142.184 314.092 141.55 314.008 140.941 314.008C140.354 314.008 139.9 314.129 139.577 314.371C139.262 314.606 139.104 314.928 139.104 315.339C139.104 315.742 139.251 316.058 139.544 316.285C139.837 316.512 140.23 316.626 140.721 316.626ZM145.299 318.76V311.39H145.838V312.644C146.447 311.72 147.217 311.258 148.148 311.258C148.867 311.258 149.501 311.529 150.051 312.072C150.601 312.607 150.876 313.315 150.876 314.195C150.876 315.068 150.601 315.775 150.051 316.318C149.501 316.861 148.867 317.132 148.148 317.132C147.195 317.132 146.425 316.685 145.838 315.79V318.76H145.299ZM148.093 316.615C148.724 316.615 149.248 316.399 149.666 315.966C150.084 315.526 150.293 314.936 150.293 314.195C150.293 313.476 150.077 312.893 149.644 312.446C149.219 311.999 148.702 311.775 148.093 311.775C147.485 311.775 146.949 312.006 146.487 312.468C146.033 312.923 145.805 313.502 145.805 314.206C145.805 314.903 146.033 315.478 146.487 315.933C146.949 316.388 147.485 316.615 148.093 316.615ZM154.266 317.132C153.65 317.132 153.133 316.978 152.715 316.67C152.304 316.355 152.099 315.915 152.099 315.35C152.099 314.778 152.323 314.331 152.77 314.008C153.217 313.685 153.811 313.524 154.552 313.524C155.183 313.524 155.802 313.605 156.411 313.766V313.524C156.411 312.967 156.25 312.541 155.927 312.248C155.604 311.955 155.15 311.808 154.563 311.808C153.976 311.808 153.39 311.958 152.803 312.259L152.605 311.786C153.302 311.463 153.965 311.302 154.596 311.302C155.366 311.302 155.956 311.507 156.367 311.918C156.748 312.299 156.939 312.827 156.939 313.502V317H156.411V316.065C155.905 316.776 155.19 317.132 154.266 317.132ZM154.299 316.626C154.886 316.626 155.384 316.465 155.795 316.142C156.213 315.812 156.422 315.398 156.422 314.899V314.261C155.762 314.092 155.128 314.008 154.519 314.008C153.932 314.008 153.478 314.129 153.155 314.371C152.84 314.606 152.682 314.928 152.682 315.339C152.682 315.742 152.829 316.058 153.122 316.285C153.415 316.512 153.808 316.626 154.299 316.626Z" fill="white"/>
<path d="M75.8588 251L82.8548 236.7H73.9228V235.6H84.1308V236.436L77.1128 251H75.8588ZM86.8789 245.038V243.894H95.4149V245.038H86.8789ZM100.394 251L107.39 236.7H98.4579V235.6H108.666V236.436L101.648 251H100.394ZM111.678 251V249.13H113.13V251H111.678ZM121.588 251.264C120.591 251.264 119.623 251.037 118.684 250.582C117.746 250.113 116.917 249.511 116.198 248.778L117.012 247.964C118.523 249.475 120.063 250.23 121.632 250.23C122.835 250.23 123.825 249.856 124.602 249.108C125.38 248.36 125.768 247.429 125.768 246.314C125.768 245.243 125.372 244.371 124.58 243.696C123.803 243.007 122.791 242.662 121.544 242.662C120.415 242.662 119.256 242.985 118.068 243.63L117.188 243.058L117.628 235.6H126.274V236.7H118.64L118.266 242.464C119.41 241.907 120.547 241.628 121.676 241.628C123.187 241.628 124.441 242.068 125.438 242.948C126.45 243.813 126.956 244.935 126.956 246.314C126.956 247.766 126.45 248.954 125.438 249.878C124.426 250.802 123.143 251.264 121.588 251.264ZM130.311 251V239.78H131.279L135.855 246.226L140.431 239.78H141.399V251H140.321V241.65L135.811 247.854L131.345 241.65V251H130.311ZM145.5 251V239.78H152.914V240.748H146.578V251H145.5Z" fill="white"/>
<g filter="url(#filter1_i)">
<circle cx="113" cy="241" r="56.5" stroke="#CCF0EE" stroke-width="5"/>
</g>
<path d="M60.8268 493.132C59.7341 493.132 58.8211 492.751 58.0878 491.988C57.3618 491.218 56.9988 490.272 56.9988 489.15C56.9988 488.05 57.3655 487.111 58.0988 486.334C58.8321 485.557 59.7488 485.168 60.8488 485.168C61.4795 485.168 62.0148 485.274 62.4548 485.487C62.9021 485.7 63.3531 486.015 63.8078 486.433L63.4338 486.818C62.6565 486.063 61.7911 485.685 60.8378 485.685C59.9138 485.685 59.1401 486.019 58.5168 486.686C57.9008 487.346 57.5928 488.167 57.5928 489.15C57.5928 490.125 57.9045 490.947 58.5278 491.614C59.1585 492.281 59.9321 492.615 60.8488 492.615C61.3841 492.615 61.8571 492.516 62.2678 492.318C62.6785 492.12 63.0891 491.819 63.4998 491.416L63.8848 491.79C63.4375 492.23 62.9755 492.564 62.4988 492.791C62.0221 493.018 61.4648 493.132 60.8268 493.132ZM65.3399 493V487.39H65.8789V490.987L69.3549 487.39H70.0699L67.6169 489.876L70.1469 493H69.4649L67.2429 490.261L65.8789 491.636V493H65.3399ZM75.9952 492.263C75.4452 492.842 74.7595 493.132 73.9382 493.132C73.1169 493.132 72.4312 492.846 71.8812 492.274C71.3385 491.695 71.0672 491.002 71.0672 490.195C71.0672 489.396 71.3422 488.706 71.8922 488.127C72.4495 487.548 73.1389 487.258 73.9602 487.258C74.7815 487.258 75.4635 487.548 76.0062 488.127C76.5562 488.699 76.8312 489.388 76.8312 490.195C76.8312 490.994 76.5525 491.684 75.9952 492.263ZM73.9602 492.626C74.5835 492.626 75.1189 492.388 75.5662 491.911C76.0209 491.434 76.2482 490.862 76.2482 490.195C76.2482 489.52 76.0209 488.948 75.5662 488.479C75.1189 488.002 74.5762 487.764 73.9382 487.764C73.3075 487.764 72.7685 488.002 72.3212 488.479C71.8739 488.948 71.6502 489.52 71.6502 490.195C71.6502 490.87 71.8739 491.445 72.3212 491.922C72.7685 492.391 73.3149 492.626 73.9602 492.626ZM78.4883 494.76V487.39H79.0273V488.644C79.636 487.72 80.406 487.258 81.3373 487.258C82.056 487.258 82.6903 487.529 83.2403 488.072C83.7903 488.607 84.0653 489.315 84.0653 490.195C84.0653 491.068 83.7903 491.775 83.2403 492.318C82.6903 492.861 82.056 493.132 81.3373 493.132C80.384 493.132 79.614 492.685 79.0273 491.79V494.76H78.4883ZM81.2823 492.615C81.913 492.615 82.4373 492.399 82.8553 491.966C83.2733 491.526 83.4823 490.936 83.4823 490.195C83.4823 489.476 83.266 488.893 82.8333 488.446C82.408 487.999 81.891 487.775 81.2823 487.775C80.6737 487.775 80.1383 488.006 79.6763 488.468C79.2217 488.923 78.9943 489.502 78.9943 490.206C78.9943 490.903 79.2217 491.478 79.6763 491.933C80.1383 492.388 80.6737 492.615 81.2823 492.615ZM90.2931 492.263C89.7431 492.842 89.0574 493.132 88.2361 493.132C87.4147 493.132 86.7291 492.846 86.1791 492.274C85.6364 491.695 85.3651 491.002 85.3651 490.195C85.3651 489.396 85.6401 488.706 86.1901 488.127C86.7474 487.548 87.4367 487.258 88.2581 487.258C89.0794 487.258 89.7614 487.548 90.3041 488.127C90.8541 488.699 91.1291 489.388 91.1291 490.195C91.1291 490.994 90.8504 491.684 90.2931 492.263ZM88.2581 492.626C88.8814 492.626 89.4167 492.388 89.8641 491.911C90.3187 491.434 90.5461 490.862 90.5461 490.195C90.5461 489.52 90.3187 488.948 89.8641 488.479C89.4167 488.002 88.8741 487.764 88.2361 487.764C87.6054 487.764 87.0664 488.002 86.6191 488.479C86.1717 488.948 85.9481 489.52 85.9481 490.195C85.9481 490.87 86.1717 491.445 86.6191 491.922C87.0664 492.391 87.6127 492.626 88.2581 492.626ZM95.2612 493.132C94.4545 493.132 93.7762 492.846 93.2262 492.274C92.6762 491.702 92.4012 491.009 92.4012 490.195C92.4012 489.388 92.6762 488.699 93.2262 488.127C93.7835 487.548 94.4619 487.258 95.2612 487.258C96.1339 487.258 96.8782 487.606 97.4942 488.303L97.1202 488.688C96.5189 488.072 95.8955 487.764 95.2502 487.764C94.6269 487.764 94.0915 488.002 93.6442 488.479C93.2042 488.956 92.9842 489.528 92.9842 490.195C92.9842 490.87 93.2079 491.445 93.6552 491.922C94.1025 492.391 94.6489 492.626 95.2942 492.626C95.9615 492.626 96.5812 492.307 97.1532 491.669L97.5492 492.021C96.8965 492.762 96.1339 493.132 95.2612 493.132ZM100.478 493V487.874H98.3774V487.39H103.118V487.874H101.017V493H100.478ZM104.474 493V487.39H105.013V489.546H106.685C107.308 489.546 107.821 489.685 108.225 489.964C108.628 490.235 108.83 490.646 108.83 491.196C108.83 491.739 108.643 492.175 108.269 492.505C107.895 492.835 107.4 493 106.784 493H104.474ZM105.013 492.516H106.696C107.172 492.516 107.55 492.402 107.829 492.175C108.107 491.948 108.247 491.629 108.247 491.218C108.247 490.844 108.104 490.554 107.818 490.349C107.532 490.136 107.143 490.03 106.652 490.03H105.013V492.516ZM115.299 493.132C114.683 493.132 114.166 492.978 113.748 492.67C113.337 492.355 113.132 491.915 113.132 491.35C113.132 490.778 113.355 490.331 113.803 490.008C114.25 489.685 114.844 489.524 115.585 489.524C116.215 489.524 116.835 489.605 117.444 489.766V489.524C117.444 488.967 117.282 488.541 116.96 488.248C116.637 487.955 116.182 487.808 115.596 487.808C115.009 487.808 114.422 487.958 113.836 488.259L113.638 487.786C114.334 487.463 114.998 487.302 115.629 487.302C116.399 487.302 116.989 487.507 117.4 487.918C117.781 488.299 117.972 488.827 117.972 489.502V493H117.444V492.065C116.938 492.776 116.223 493.132 115.299 493.132ZM115.332 492.626C115.918 492.626 116.417 492.465 116.828 492.142C117.246 491.812 117.455 491.398 117.455 490.899V490.261C116.795 490.092 116.16 490.008 115.552 490.008C114.965 490.008 114.51 490.129 114.188 490.371C113.872 490.606 113.715 490.928 113.715 491.339C113.715 491.742 113.861 492.058 114.155 492.285C114.448 492.512 114.84 492.626 115.332 492.626ZM119.91 493V487.39H120.449V490.987L123.925 487.39H124.64L122.187 489.876L124.717 493H124.035L121.813 490.261L120.449 491.636V493H119.91ZM127.431 493V487.874H125.33V487.39H130.071V487.874H127.97V493H127.431ZM131.426 493V487.39H131.965V492.285L135.771 487.39H136.31V493H135.771V488.105L131.965 493H131.426ZM138.355 493V487.39H140.918C141.468 487.39 141.908 487.518 142.238 487.775C142.568 488.024 142.733 488.362 142.733 488.787C142.733 489.381 142.417 489.81 141.787 490.074C142.161 490.169 142.465 490.334 142.7 490.569C142.934 490.804 143.052 491.104 143.052 491.471C143.052 491.933 142.868 492.303 142.502 492.582C142.135 492.861 141.647 493 141.039 493H138.355ZM138.894 492.516H140.973C141.442 492.516 141.812 492.417 142.084 492.219C142.355 492.014 142.491 491.739 142.491 491.394C142.491 491.064 142.348 490.807 142.062 490.624C141.783 490.441 141.376 490.349 140.841 490.349H138.894V492.516ZM138.894 489.898H140.841C141.244 489.898 141.567 489.806 141.809 489.623C142.058 489.432 142.183 489.165 142.183 488.82C142.183 488.534 142.069 488.307 141.842 488.138C141.614 487.962 141.292 487.874 140.874 487.874H138.894V489.898ZM146.44 493.132C145.824 493.132 145.307 492.978 144.889 492.67C144.479 492.355 144.273 491.915 144.273 491.35C144.273 490.778 144.497 490.331 144.944 490.008C145.392 489.685 145.986 489.524 146.726 489.524C147.357 489.524 147.977 489.605 148.585 489.766V489.524C148.585 488.967 148.424 488.541 148.101 488.248C147.779 487.955 147.324 487.808 146.737 487.808C146.151 487.808 145.564 487.958 144.977 488.259L144.779 487.786C145.476 487.463 146.14 487.302 146.77 487.302C147.54 487.302 148.131 487.507 148.541 487.918C148.923 488.299 149.113 488.827 149.113 489.502V493H148.585V492.065C148.079 492.776 147.364 493.132 146.44 493.132ZM146.473 492.626C147.06 492.626 147.559 492.465 147.969 492.142C148.387 491.812 148.596 491.398 148.596 490.899V490.261C147.936 490.092 147.302 490.008 146.693 490.008C146.107 490.008 145.652 490.129 145.329 490.371C145.014 490.606 144.856 490.928 144.856 491.339C144.856 491.742 145.003 492.058 145.296 492.285C145.59 492.512 145.982 492.626 146.473 492.626ZM156.068 494.584V493H151.052V487.39H151.591V492.516H155.177V487.39H155.716V492.516H156.618L156.508 494.584H156.068ZM157.97 493V487.39H158.509V492.285L162.315 487.39H162.854V493H162.315V488.105L158.509 493H157.97ZM164.898 493V487.39H165.437V492.285L169.243 487.39H169.782V493H169.243V488.105L165.437 493H164.898Z" fill="white"/>
<g filter="url(#filter2_i)">
<circle cx="113" cy="417" r="56.5" stroke="#CCF0EE" stroke-width="5"/>
</g>
<path d="M72.3565 418.292V417.17H82.3445V418.292H72.3565ZM72.3565 413.342V412.22H82.3445V413.342H72.3565ZM92.1708 423.264C90.2641 423.264 88.7241 422.494 87.5508 420.954C86.3921 419.399 85.8128 417.515 85.8128 415.3C85.8128 413.877 86.0695 412.565 86.5828 411.362C87.0961 410.159 87.8441 409.191 88.8268 408.458C89.8241 407.71 90.9535 407.336 92.2148 407.336C94.1215 407.336 95.6541 408.113 96.8128 409.668C97.9861 411.208 98.5728 413.085 98.5728 415.3C98.5728 416.723 98.3161 418.035 97.8028 419.238C97.2895 420.441 96.5341 421.416 95.5368 422.164C94.5541 422.897 93.4321 423.264 92.1708 423.264ZM88.4528 420.162C89.4208 421.541 90.6748 422.23 92.2148 422.23C93.7548 422.23 95.0015 421.548 95.9548 420.184C96.9081 418.805 97.3848 417.177 97.3848 415.3C97.3848 413.423 96.9008 411.802 95.9328 410.438C94.9648 409.059 93.7108 408.37 92.1708 408.37C90.6308 408.37 89.3841 409.052 88.4308 410.416C87.4775 411.78 87.0008 413.408 87.0008 415.3C87.0008 417.163 87.4848 418.783 88.4528 420.162ZM101.806 423V421.13H103.258V423H101.806ZM106.128 423V422.142L111.87 416.95C113.146 415.791 114.034 414.831 114.532 414.068C115.031 413.291 115.28 412.499 115.28 411.692C115.28 410.724 114.936 409.932 114.246 409.316C113.572 408.7 112.758 408.392 111.804 408.392C110.866 408.392 110.044 408.627 109.34 409.096C108.651 409.565 107.969 410.284 107.294 411.252L106.436 410.68C107.17 409.565 107.947 408.737 108.768 408.194C109.59 407.651 110.638 407.38 111.914 407.38C113.22 407.38 114.305 407.791 115.17 408.612C116.05 409.419 116.49 410.431 116.49 411.648C116.49 412.66 116.204 413.584 115.632 414.42C115.075 415.256 114.078 416.327 112.64 417.632L107.932 421.9H116.644V423H106.128ZM125.045 423.264C123.431 423.264 122.075 422.692 120.975 421.548C119.875 420.404 119.325 419.018 119.325 417.39C119.325 415.777 119.875 414.398 120.975 413.254C122.089 412.095 123.446 411.516 125.045 411.516C126.79 411.516 128.279 412.213 129.511 413.606L128.763 414.376C127.56 413.144 126.313 412.528 125.023 412.528C123.776 412.528 122.705 413.005 121.811 413.958C120.931 414.911 120.491 416.055 120.491 417.39C120.491 418.739 120.938 419.891 121.833 420.844C122.727 421.783 123.82 422.252 125.111 422.252C126.445 422.252 127.685 421.614 128.829 420.338L129.621 421.042C128.315 422.523 126.79 423.264 125.045 423.264ZM137.393 423.264C135.883 423.264 134.585 422.714 133.499 421.614C132.429 420.514 131.893 419.099 131.893 417.368C131.893 415.725 132.399 414.339 133.411 413.21C134.438 412.081 135.707 411.516 137.217 411.516C138.757 411.516 139.997 412.073 140.935 413.188C141.889 414.303 142.365 415.703 142.365 417.39C142.365 417.566 142.358 417.713 142.343 417.83H133.037C133.14 419.179 133.609 420.257 134.445 421.064C135.296 421.856 136.293 422.252 137.437 422.252C138.904 422.252 140.187 421.665 141.287 420.492L142.035 421.152C140.73 422.56 139.183 423.264 137.393 423.264ZM133.037 416.862H141.199C141.111 415.63 140.723 414.596 140.033 413.76C139.344 412.924 138.391 412.506 137.173 412.506C136.073 412.506 135.135 412.924 134.357 413.76C133.58 414.581 133.14 415.615 133.037 416.862ZM145.511 423V411.78H146.589V418.974L153.541 411.78H154.971L150.065 416.752L155.125 423H153.761L149.317 417.522L146.589 420.272V423H145.511Z" fill="white"/>
<defs>
<filter id="filter0_i" x="54" y="0" width="122" height="122" filterUnits="userSpaceOnUse" color-interpolation-filters="sRGB">
<feFlood flood-opacity="0" result="BackgroundImageFix"/>
<feBlend mode="normal" in="SourceGraphic" in2="BackgroundImageFix" result="shape"/>
<feColorMatrix in="SourceAlpha" type="matrix" values="0 0 0 0 0 0 0 0 0 0 0 0 0 0 0 0 0 0 127 0" result="hardAlpha"/>
<feOffset dx="4" dy="4"/>
<feGaussianBlur stdDeviation="4"/>
<feComposite in2="hardAlpha" operator="arithmetic" k2="-1" k3="1"/>
<feColorMatrix type="matrix" values="0 0 0 0 0.8 0 0 0 0 0.941176 0 0 0 0 0.933333 0 0 0 1 0"/>
<feBlend mode="multiply" in2="shape" result="effect1_innerShadow"/>
</filter>
<filter id="filter1_i" x="54" y="182" width="122" height="122" filterUnits="userSpaceOnUse" color-interpolation-filters="sRGB">
<feFlood flood-opacity="0" result="BackgroundImageFix"/>
<feBlend mode="normal" in="SourceGraphic" in2="BackgroundImageFix" result="shape"/>
<feColorMatrix in="SourceAlpha" type="matrix" values="0 0 0 0 0 0 0 0 0 0 0 0 0 0 0 0 0 0 127 0" result="hardAlpha"/>
<feOffset dx="4" dy="4"/>
<feGaussianBlur stdDeviation="4"/>
<feComposite in2="hardAlpha" operator="arithmetic" k2="-1" k3="1"/>
<feColorMatrix type="matrix" values="0 0 0 0 0.8 0 0 0 0 0.941176 0 0 0 0 0.933333 0 0 0 1 0"/>
<feBlend mode="multiply" in2="shape" result="effect1_innerShadow"/>
</filter>
<filter id="filter2_i" x="54" y="358" width="122" height="122" filterUnits="userSpaceOnUse" color-interpolation-filters="sRGB">
<feFlood flood-opacity="0" result="BackgroundImageFix"/>
<feBlend mode="normal" in="SourceGraphic" in2="BackgroundImageFix" result="shape"/>
<feColorMatrix in="SourceAlpha" type="matrix" values="0 0 0 0 0 0 0 0 0 0 0 0 0 0 0 0 0 0 127 0" result="hardAlpha"/>
<feOffset dx="4" dy="4"/>
<feGaussianBlur stdDeviation="4"/>
<feComposite in2="hardAlpha" operator="arithmetic" k2="-1" k3="1"/>
<feColorMatrix type="matrix" values="0 0 0 0 0.8 0 0 0 0 0.941176 0 0 0 0 0.933333 0 0 0 1 0"/>
<feBlend mode="multiply" in2="shape" result="effect1_innerShadow"/>
</filter>
</defs>
</svg>
