<svg width="88" height="89" viewBox="0 0 88 89" fill="none" xmlns="http://www.w3.org/2000/svg">
<circle cx="44" cy="44.9981" r="44" transform="rotate(180 44 44.9981)" fill="white"/>
<path d="M46.8502 51.588L53.106 45.871C53.1885 45.796 53.2481 45.7025 53.2788 45.6C53.3148 45.491 53.3177 45.3751 53.2873 45.2647C53.2569 45.1544 53.1942 45.0536 53.106 44.9732L46.8502 39.2555C46.7199 39.1364 46.5432 39.0694 46.3589 39.0693C46.1746 39.0693 45.9978 39.1361 45.8674 39.2552C45.737 39.3742 45.6637 39.5358 45.6636 39.7042C45.6636 39.8726 45.7367 40.0342 45.867 40.1534L50.9365 44.7868L34.5417 44.7869C34.4485 44.7841 34.3556 44.7984 34.2686 44.8291C34.1817 44.8598 34.1023 44.9061 34.0353 44.9654C33.9683 45.0247 33.915 45.0956 33.8786 45.1741C33.8422 45.2526 33.8235 45.3369 33.8235 45.4221C33.8235 45.5073 33.8422 45.5917 33.8786 45.6701C33.915 45.7486 33.9683 45.8196 34.0353 45.8788C34.1023 45.9381 34.1817 45.9844 34.2686 46.0151C34.3556 46.0458 34.4485 46.0602 34.5417 46.0574L50.9365 46.0574L45.867 50.6902C45.7367 50.8093 45.6636 50.9709 45.6636 51.1393C45.6637 51.3078 45.737 51.4693 45.8674 51.5884C45.9978 51.7074 46.1746 51.7743 46.3589 51.7742C46.5432 51.7741 46.7199 51.7072 46.8502 51.588Z" fill="black"/>
</svg>
