<svg width="88" height="89" viewBox="0 0 88 89" fill="none" xmlns="http://www.w3.org/2000/svg">
<circle cx="44" cy="44.998" r="44" fill="white"/>
<path d="M41.1498 38.4081L34.894 44.1251C34.8115 44.2001 34.7519 44.2935 34.7212 44.3961C34.6852 44.5051 34.6823 44.621 34.7127 44.7313C34.7431 44.8417 34.8058 44.9425 34.894 45.0229L41.1498 50.7406C41.2801 50.8597 41.4568 50.9267 41.6411 50.9268C41.8254 50.9268 42.0022 50.86 42.1326 50.7409C42.263 50.6219 42.3363 50.4603 42.3364 50.2919C42.3364 50.1235 42.2633 49.9619 42.133 49.8427L37.0635 45.2092L53.4583 45.2092C53.5515 45.212 53.6444 45.1977 53.7314 45.167C53.8183 45.1363 53.8977 45.09 53.9647 45.0307C54.0317 44.9714 54.085 44.9005 54.1214 44.822C54.1578 44.7435 54.1765 44.6592 54.1765 44.574C54.1765 44.4888 54.1578 44.4044 54.1214 44.326C54.085 44.2475 54.0317 44.1765 53.9647 44.1173C53.8977 44.058 53.8183 44.0117 53.7314 43.981C53.6444 43.9503 53.5515 43.9359 53.4583 43.9387L37.0635 43.9387L42.133 39.3059C42.2633 39.1868 42.3364 39.0252 42.3364 38.8567C42.3363 38.6883 42.263 38.5268 42.1326 38.4077C42.0022 38.2887 41.8254 38.2218 41.6411 38.2219C41.4568 38.2219 41.2801 38.2889 41.1498 38.4081Z" fill="black"/>
</svg>
